<svg width="325" height="343" viewBox="0 0 325 343" fill="none" xmlns="http://www.w3.org/2000/svg">
<path d="M147.973 227L160.973 188L229.473 169C229.473 232.5 190.966 304.305 138.969 319C115.969 325.5 37.8726 325.1 5.4726 245.5C-5.86074 209.5 -7.02362 131 77.4763 75C96.643 62.8333 134.469 38.5 204.976 20.5L190.469 0L280.469 20.5L220.969 88.5L217.969 63.5C190.469 66.5 78.9293 111.6 56.4688 188C57.6354 168 71.2688 118.6 110.469 89C81.0839 103.5 24.6451 151.9 39.9688 221.5C49.8047 253.5 85.7718 309.6 158.969 272C169.302 265.005 189.869 243.811 191.469 215L147.973 227Z" fill="#EB0028"/>
<g filter="url(#filter0_di_1111_31)">
<path d="M99.4632 320C1.91597 277.131 30.5595 194.058 45.3998 158.5L39.1885 175.448L37.3984 192.397V200.372L37.8986 208.348L38.9617 217L39.9617 222L40.9617 224.5L43.9617 232.5L46.9029 238.755L50.9047 246.233L54.9066 252.214L59.4087 257.698L64.4111 263.181L69.4134 268.166L74.916 272.153L80.9188 276.141L87.9221 279.631L91.924 281.126L96.4261 282.622L104.43 284.117L108.432 284.616H112.434H116.936L120.437 284.117L124.439 283.619L127.941 283.12L130.942 282.622L135.945 281.625L142.948 279.132L148.951 277.138L157.955 272.652L162.457 269.661L167.96 264.676L172.962 259.193L181.466 247.229C153.953 295.084 119.937 299.57 78.9179 292.093L99.4632 320Z" fill="#D10023"/>
</g>
<path d="M176.969 242.5L178.469 228.5L148.969 236.5C144.969 228.9 136.469 228.833 132.469 228.5L115.969 171.5C123.569 165.5 123.802 157.333 122.969 154L271.969 105.5C276.769 113.951 285.969 114.688 289.969 114L307.969 169.5C300.769 175.5 298.302 185 297.969 189L238.969 207V221.5L312.969 198.5C307.469 183.5 315.469 177.5 323.469 173.5C316.269 171.5 317.969 160.333 319.969 157C310.769 156.2 312.802 150 314.969 147C308.969 144.6 311.135 139 312.969 136.5C304.169 134.9 306.635 129.167 308.969 126.5C299.369 125.3 302.302 118.333 304.969 115C295.369 113 298.635 104.833 301.469 101C289.069 107 278.635 97.5 274.969 92L109.469 146C111.869 158.4 102.469 166.167 97.4688 168.5C105.469 172.1 103.469 178 101.469 180.5C108.269 183.7 106.969 189.5 105.469 192C112.269 195.6 109.969 201.833 107.969 204.5C115.169 205.7 113.635 212 111.969 215C118.769 217 117.469 223.167 115.969 226C122.369 228.8 121.302 237.167 119.969 241C135.045 237.033 140.874 245.362 144.383 250.377L144.469 250.5L176.969 242.5Z" fill="#EB0028" stroke="#DF2929" stroke-width="0.5"/>
<path d="M248.469 127V133H252.969L252.469 126.5H250.969L250.469 120.5H246.469V126.5L248.469 127Z" fill="#DB0028"/>
<path d="M255.469 147V153H259.969L259.469 146.5H257.969L257.469 140.5H253.469V146.5L255.469 147Z" fill="#DB0028"/>
<path d="M261.469 165V171H265.969L265.469 164.5H263.969L263.469 158.5H259.469V164.5L261.469 165Z" fill="#DB0028"/>
<path d="M266.469 184V190H270.969L270.469 183.5H268.969L268.469 177.5H264.469V183.5L266.469 184Z" fill="#DB0028"/>
<path d="M229.469 169L147.969 227L191.469 215L229.469 169Z" fill="#BD0020"/>
<g filter="url(#filter1_i_1111_31)">
<path d="M217.469 63.5C117.969 89.5 69.4688 148.5 56.4688 188.5C65.4688 135 85.4688 109.5 109.469 89.5C141.869 62.5 233.635 33 280.469 20.5L220.969 88.5L217.469 63.5Z" fill="#D10024"/>
</g>
<defs>
<filter id="filter0_di_1111_31" x="13.7188" y="149.5" width="183.75" height="193.5" filterUnits="userSpaceOnUse" color-interpolation-filters="sRGB">
<feFlood flood-opacity="0" result="BackgroundImageFix"/>
<feColorMatrix in="SourceAlpha" type="matrix" values="0 0 0 0 0 0 0 0 0 0 0 0 0 0 0 0 0 0 127 0" result="hardAlpha"/>
<feOffset dy="7"/>
<feGaussianBlur stdDeviation="8"/>
<feComposite in2="hardAlpha" operator="out"/>
<feColorMatrix type="matrix" values="0 0 0 0 0 0 0 0 0 0 0 0 0 0 0 0 0 0 0.25 0"/>
<feBlend mode="normal" in2="BackgroundImageFix" result="effect1_dropShadow_1111_31"/>
<feBlend mode="normal" in="SourceGraphic" in2="effect1_dropShadow_1111_31" result="shape"/>
<feColorMatrix in="SourceAlpha" type="matrix" values="0 0 0 0 0 0 0 0 0 0 0 0 0 0 0 0 0 0 127 0" result="hardAlpha"/>
<feOffset dy="-1"/>
<feGaussianBlur stdDeviation="18"/>
<feComposite in2="hardAlpha" operator="arithmetic" k2="-1" k3="1"/>
<feColorMatrix type="matrix" values="0 0 0 0 0 0 0 0 0 0 0 0 0 0 0 0 0 0 0.25 0"/>
<feBlend mode="normal" in2="shape" result="effect2_innerShadow_1111_31"/>
</filter>
<filter id="filter1_i_1111_31" x="56.4688" y="20.5" width="224" height="171" filterUnits="userSpaceOnUse" color-interpolation-filters="sRGB">
<feFlood flood-opacity="0" result="BackgroundImageFix"/>
<feBlend mode="normal" in="SourceGraphic" in2="BackgroundImageFix" result="shape"/>
<feColorMatrix in="SourceAlpha" type="matrix" values="0 0 0 0 0 0 0 0 0 0 0 0 0 0 0 0 0 0 127 0" result="hardAlpha"/>
<feOffset dy="3"/>
<feGaussianBlur stdDeviation="22.5"/>
<feComposite in2="hardAlpha" operator="arithmetic" k2="-1" k3="1"/>
<feColorMatrix type="matrix" values="0 0 0 0 0 0 0 0 0 0 0 0 0 0 0 0 0 0 0.25 0"/>
<feBlend mode="normal" in2="shape" result="effect1_innerShadow_1111_31"/>
</filter>
</defs>
</svg>
