<svg width="773" height="226" viewBox="0 0 773 226" fill="none" xmlns="http://www.w3.org/2000/svg">
<path d="M116.932 202.45C116.932 224.218 68.8952 230.749 64.3203 200.273C64.3203 191.565 65.0835 96.5082 64.321 45.7144L70 41.5L128.369 0H171.831C206.142 6.53063 190.13 45.7144 171.831 45.7144H117C117 82.7213 116.932 167.552 116.932 202.45Z" fill="#EB0028"/>
<path d="M7.5577 0C-19.8912 39.1838 35.0553 53.5109 51.0234 43.5376L87.62 19.5919L115.07 0H7.5577Z" fill="#EB0028"/>
<path d="M370.488 66.127C381.461 66.127 390.978 67.602 398.825 70.8018C406.169 73.5596 412.367 76.5806 417.296 79.917L417.76 80.2266C422.483 83.4741 425.21 88.178 425.21 94.0029C425.21 98.1013 423.564 101.755 420.934 104.864C417.98 108.354 414.041 110.334 409.416 110.334C406.398 110.334 403.525 109.504 400.857 108.054V108.055C396.421 105.666 392.11 103.725 387.923 102.218C384.269 100.903 379.244 100.133 372.636 100.133C358.187 100.133 347.603 104.247 340.129 111.867C332.712 119.61 328.831 129.767 328.831 142.863C328.831 155.959 332.712 166.116 340.129 173.858C347.603 181.479 358.187 185.594 372.636 185.594C379.197 185.594 384.198 184.833 387.845 183.535C392.118 181.822 396.491 179.849 400.966 177.613C403.602 176.199 406.439 175.393 409.416 175.393C414.041 175.393 417.98 177.372 420.934 180.862C423.564 183.972 425.21 187.625 425.21 191.724C425.21 197.737 422.304 202.555 417.296 205.81L417.263 205.831C412.392 208.948 406.229 211.963 398.875 214.904L398.874 214.903C391.018 218.117 381.484 219.6 370.488 219.6C356.935 219.6 344.249 216.632 332.517 210.67L332.452 210.637C320.649 204.445 311.144 195.613 304.003 184.226L303.991 184.207L303.98 184.189C296.724 172.422 293.215 158.569 293.215 142.863C293.215 126.996 296.717 113.119 304.003 101.501C311.15 90.1041 320.67 81.3498 332.5 75.334C344.231 69.1896 356.923 66.127 370.488 66.127ZM692.199 66.127C706.825 66.127 719.84 69.3641 731.039 76.0439C742.298 82.4739 751.056 91.5462 757.252 103.148C763.496 114.661 766.52 127.958 766.52 142.863C766.52 157.771 763.495 171.141 757.271 182.812L757.262 182.829L757.252 182.847C751.038 194.304 742.261 203.373 731.002 209.973L730.989 209.979L730.977 209.987C719.789 216.464 706.797 219.6 692.199 219.6C677.599 219.6 664.536 216.464 653.19 210.009L653.159 209.99L653.128 209.973C641.869 203.373 633.092 194.304 626.878 182.847L626.852 182.797L626.826 182.747C620.803 171.09 617.88 157.744 617.88 142.863C617.88 127.985 620.802 114.712 626.844 103.214L626.859 103.183C633.074 91.5297 641.872 82.426 653.19 75.9863C664.533 69.3535 677.597 66.127 692.199 66.127ZM233.564 67.4697C238.484 67.4697 242.906 69.1247 246.379 72.5977C249.852 76.0706 251.507 80.4929 251.507 85.4121V200.583C251.507 205.411 249.793 209.715 246.379 213.129C242.906 216.602 238.484 218.257 233.564 218.257C228.736 218.257 224.433 216.543 221.019 213.129C217.604 209.715 215.891 205.411 215.891 200.583V85.4121C215.891 80.493 217.546 76.0706 221.019 72.5977C224.433 69.1835 228.736 67.4698 233.564 67.4697ZM481.15 8.40723C486.047 8.40727 490.339 10.2637 493.696 13.8037C497.236 17.1614 499.093 21.4533 499.093 26.3496V123.365L553.598 72.9824L553.703 72.8848L553.813 72.793C555.147 71.6818 556.581 70.6905 558.109 69.8174L558.244 69.7402L558.383 69.6709C560.596 68.5642 562.975 68.0059 565.448 68.0059C570.976 68.0059 576.47 69.6188 579.548 74.6016H579.549C581.674 77.907 582.854 81.5395 582.854 85.4121C582.853 87.3317 582.392 89.3174 581.762 91.207L581.729 91.3057L581.692 91.4023C580.731 93.9658 578.796 96.3495 576.651 98.4941L576.543 98.6025L576.429 98.7051L541.598 129.907L587.096 190.235H587.095C589.483 193.356 590.908 196.927 590.908 200.852C590.908 205.767 589.247 210.203 585.618 213.553C582.122 216.78 577.753 218.257 572.965 218.257C567.25 218.257 562.465 215.573 558.754 211.166L558.635 211.024L558.525 210.876L516.023 153.053L499.093 168.427V200.583C499.093 205.506 497.217 209.819 493.64 213.185C490.235 216.562 485.952 218.257 481.15 218.257C476.322 218.257 472.019 216.543 468.604 213.129C465.19 209.715 463.477 205.411 463.477 200.583V26.3496C463.477 21.5467 465.173 17.2638 468.551 13.8584C471.916 10.2822 476.228 8.40723 481.15 8.40723ZM692.199 99.5957C686.307 99.5957 680.212 100.986 673.871 103.913L673.842 103.927L673.812 103.94C668.156 106.471 663.324 110.755 659.357 117.102C655.618 123.084 653.496 131.43 653.496 142.595C653.496 153.732 655.607 162.19 659.371 168.379C663.344 174.728 668.202 179.123 673.909 181.83C680.237 184.745 686.319 186.131 692.199 186.131C698.088 186.131 704.076 184.742 710.209 181.837C715.929 179.128 720.795 174.722 724.773 168.356L724.793 168.325C728.708 162.151 730.903 153.716 730.903 142.595C730.903 131.464 728.705 123.152 724.827 117.186L724.8 117.144L724.773 117.102C720.807 110.755 715.975 106.471 710.319 103.94L710.264 103.916L710.209 103.89C704.076 100.984 698.088 99.5957 692.199 99.5957ZM234.639 12.4336C239.897 12.4337 244.536 14.3773 248.258 18.0986C251.979 21.8202 253.923 26.46 253.923 31.7188V32.793C253.923 38.0515 251.979 42.6906 248.258 46.4121C244.536 50.1336 239.897 52.0771 234.639 52.0771H233.027C227.769 52.0771 223.13 50.1336 219.408 46.4121C215.687 42.6906 213.743 38.0515 213.743 32.793V31.7188C213.743 26.46 215.687 21.8202 219.408 18.0986C223.13 14.3773 227.769 12.4337 233.027 12.4336H234.639Z" fill="#EB0028" stroke="#EB0028" stroke-width="11.186"/>
</svg>
