<svg width="2226" height="365" viewBox="0 0 2226 365" fill="none" xmlns="http://www.w3.org/2000/svg">
<path d="M1266.93 365.001L1281.59 338.93H1411.95L1397.29 365.001H1266.93Z" fill="#D3201C"/>
<path d="M505.712 306.754C488.401 306.754 472.445 304.043 457.845 298.62C443.454 292.989 430.836 285.063 419.99 274.843C409.353 264.623 401.01 252.63 394.961 238.864C389.121 225.099 386.201 209.977 386.201 193.5C386.201 177.023 389.121 161.902 394.961 148.136C401.01 134.371 409.457 122.378 420.303 112.158C431.148 101.938 443.871 94.1164 458.471 88.6936C473.071 83.0622 489.131 80.2465 506.651 80.2465C526.048 80.2465 543.464 83.4793 558.898 89.945C574.541 96.4107 587.681 105.796 598.318 118.102L565.781 148.136C557.855 139.793 549.199 133.641 539.814 129.678C530.428 125.506 520.208 123.421 509.154 123.421C498.517 123.421 488.818 125.089 480.058 128.426C471.298 131.763 463.685 136.561 457.22 142.818C450.963 149.075 446.061 156.479 442.515 165.03C439.178 173.582 437.51 183.072 437.51 193.5C437.51 203.72 439.178 213.106 442.515 221.657C446.061 230.209 450.963 237.717 457.22 244.183C463.685 250.44 471.194 255.237 479.745 258.574C488.505 261.912 498.1 263.58 508.528 263.58C518.54 263.58 528.238 262.016 537.624 258.887C547.218 255.55 556.499 250.023 565.468 242.306L594.251 278.91C582.362 287.879 568.492 294.761 552.641 299.559C536.998 304.356 521.355 306.754 505.712 306.754ZM547.948 272.34V190.059H594.251V278.91L547.948 272.34ZM634.761 303V134.683H681.376V182.238L674.806 168.472C679.812 156.583 687.842 147.615 698.896 141.566C709.95 135.309 723.403 132.181 739.255 132.181V177.232C737.169 177.023 735.292 176.919 733.623 176.919C731.955 176.71 730.182 176.606 728.305 176.606C714.956 176.606 704.11 180.465 695.768 188.182C687.633 195.69 683.566 207.475 683.566 223.535V303H634.761ZM857.39 303V270.15L854.261 262.954V204.137C854.261 193.709 851.028 185.575 844.562 179.735C838.305 173.895 828.607 170.975 815.467 170.975C806.498 170.975 797.634 172.435 788.874 175.355C780.323 178.066 773.023 181.82 766.974 186.618L749.454 152.516C758.631 146.051 769.686 141.045 782.617 137.499C795.548 133.953 808.688 132.181 822.037 132.181C847.691 132.181 867.609 138.229 881.792 150.326C895.975 162.423 903.067 181.299 903.067 206.953V303H857.39ZM806.081 305.503C792.941 305.503 781.678 303.313 772.293 298.933C762.907 294.344 755.711 288.191 750.706 280.474C745.7 272.757 743.197 264.102 743.197 254.507C743.197 244.496 745.596 235.736 750.393 228.227C755.398 220.719 763.22 214.879 773.857 210.707C784.494 206.327 798.364 204.137 815.467 204.137H860.205V232.607H820.785C809.314 232.607 801.388 234.485 797.008 238.239C792.837 241.993 790.751 246.686 790.751 252.317C790.751 258.574 793.15 263.58 797.947 267.334C802.953 270.88 809.731 272.653 818.283 272.653C826.417 272.653 833.717 270.776 840.182 267.022C846.648 263.059 851.341 257.323 854.261 249.814L861.769 272.34C858.224 283.186 851.758 291.424 842.372 297.056C832.987 302.687 820.89 305.503 806.081 305.503ZM1043.6 305.503C1028.79 305.503 1016.07 302.374 1005.43 296.117C994.792 289.86 986.658 280.37 981.026 267.647C975.395 254.716 972.579 238.447 972.579 218.842C972.579 199.027 975.499 182.759 981.339 170.036C987.388 157.313 995.731 147.823 1006.37 141.566C1017 135.309 1029.41 132.181 1043.6 132.181C1059.45 132.181 1073.63 135.726 1086.15 142.818C1098.87 149.909 1108.88 159.92 1116.18 172.852C1123.69 185.783 1127.44 201.113 1127.44 218.842C1127.44 236.362 1123.69 251.587 1116.18 264.519C1108.88 277.45 1098.87 287.566 1086.15 294.866C1073.63 301.957 1059.45 305.503 1043.6 305.503ZM944.109 303V70.8608H992.915V168.785L989.786 218.529L990.725 268.586V303H944.109ZM1035.15 265.457C1043.28 265.457 1050.48 263.58 1056.74 259.826C1063.2 256.072 1068.31 250.753 1072.07 243.87C1076.03 236.779 1078.01 228.436 1078.01 218.842C1078.01 209.039 1076.03 200.696 1072.07 193.813C1068.31 186.93 1063.2 181.612 1056.74 177.858C1050.48 174.103 1043.28 172.226 1035.15 172.226C1027.02 172.226 1019.72 174.103 1013.25 177.858C1006.78 181.612 1001.67 186.93 997.921 193.813C994.166 200.696 992.289 209.039 992.289 218.842C992.289 228.436 994.166 236.779 997.921 243.87C1001.67 250.753 1006.78 256.072 1013.25 259.826C1019.72 263.58 1027.02 265.457 1035.15 265.457ZM1228 305.503C1214.03 305.503 1201.52 302.791 1190.46 297.369C1179.62 291.946 1171.17 283.707 1165.12 272.653C1159.07 261.39 1156.05 247.103 1156.05 229.792V134.683H1204.85V222.596C1204.85 236.57 1207.77 246.894 1213.61 253.569C1219.66 260.034 1228.11 263.267 1238.95 263.267C1246.46 263.267 1253.14 261.703 1258.98 258.574C1264.82 255.237 1269.41 250.232 1272.74 243.557C1276.08 236.675 1277.75 228.123 1277.75 217.903V134.683H1326.55V303H1280.25V256.697L1288.7 270.15C1283.07 281.83 1274.72 290.694 1263.67 296.743C1252.82 302.583 1240.94 305.503 1228 305.503ZM1368.64 303V134.683H1415.26V182.238L1408.69 168.472C1413.69 156.583 1421.72 147.615 1432.78 141.566C1443.83 135.309 1457.28 132.181 1473.13 132.181V177.232C1471.05 177.023 1469.17 176.919 1467.5 176.919C1465.83 176.71 1464.06 176.606 1462.18 176.606C1448.84 176.606 1437.99 180.465 1429.65 188.182C1421.51 195.69 1417.45 207.475 1417.45 223.535V303H1368.64ZM1501.86 303V84.0007H1596.65C1616.26 84.0007 1633.15 87.2336 1647.33 93.6993C1661.52 99.9564 1672.47 109.029 1680.18 120.918C1687.9 132.806 1691.76 146.989 1691.76 163.466C1691.76 179.735 1687.9 193.813 1680.18 205.702C1672.47 217.59 1661.52 226.767 1647.33 233.233C1633.15 239.49 1616.26 242.619 1596.65 242.619H1530.01L1552.54 219.78V303H1501.86ZM1552.54 225.412L1530.01 201.322H1593.84C1609.48 201.322 1621.16 197.985 1628.88 191.31C1636.59 184.636 1640.45 175.355 1640.45 163.466C1640.45 151.369 1636.59 141.983 1628.88 135.309C1621.16 128.635 1609.48 125.298 1593.84 125.298H1530.01L1552.54 101.208V225.412ZM1823.09 303V270.15L1819.96 262.954V204.137C1819.96 193.709 1816.73 185.575 1810.26 179.735C1804 173.895 1794.31 170.975 1781.17 170.975C1772.2 170.975 1763.33 172.435 1754.57 175.355C1746.02 178.066 1738.72 181.82 1732.67 186.618L1715.15 152.516C1724.33 146.051 1735.38 141.045 1748.32 137.499C1761.25 133.953 1774.39 132.181 1787.74 132.181C1813.39 132.181 1833.31 138.229 1847.49 150.326C1861.67 162.423 1868.77 181.299 1868.77 206.953V303H1823.09ZM1771.78 305.503C1758.64 305.503 1747.38 303.313 1737.99 298.933C1728.61 294.344 1721.41 288.191 1716.4 280.474C1711.4 272.757 1708.9 264.102 1708.9 254.507C1708.9 244.496 1711.29 235.736 1716.09 228.227C1721.1 220.719 1728.92 214.879 1739.56 210.707C1750.19 206.327 1764.06 204.137 1781.17 204.137H1825.9V232.607H1786.48C1775.01 232.607 1767.09 234.485 1762.71 238.239C1758.54 241.993 1756.45 246.686 1756.45 252.317C1756.45 258.574 1758.85 263.58 1763.65 267.334C1768.65 270.88 1775.43 272.653 1783.98 272.653C1792.12 272.653 1799.42 270.776 1805.88 267.022C1812.35 263.059 1817.04 257.323 1819.96 249.814L1827.47 272.34C1823.92 283.186 1817.46 291.424 1808.07 297.056C1798.69 302.687 1786.59 305.503 1771.78 305.503ZM1966.44 305.503C1952.04 305.503 1938.17 303.834 1924.83 300.497C1911.69 296.951 1901.26 292.571 1893.54 287.357L1909.81 252.317C1917.53 257.114 1926.6 261.077 1937.03 264.206C1947.66 267.126 1958.09 268.586 1968.31 268.586C1979.58 268.586 1987.5 267.23 1992.09 264.519C1996.89 261.807 1999.28 258.053 1999.28 253.256C1999.28 249.293 1997.41 246.373 1993.65 244.496C1990.11 242.41 1985.31 240.846 1979.26 239.803C1973.21 238.76 1966.54 237.717 1959.24 236.675C1952.15 235.632 1944.95 234.276 1937.65 232.607C1930.35 230.73 1923.68 228.019 1917.63 224.473C1911.58 220.927 1906.68 216.13 1902.93 210.082C1899.38 204.033 1897.61 196.212 1897.61 186.618C1897.61 175.98 1900.63 166.595 1906.68 158.46C1912.94 150.326 1921.91 143.965 1933.59 139.376C1945.27 134.579 1959.24 132.181 1975.51 132.181C1986.98 132.181 1998.66 133.432 2010.55 135.935C2022.44 138.438 2032.34 142.088 2040.27 146.885L2024 181.612C2015.87 176.815 2007.63 173.582 1999.28 171.913C1991.15 170.036 1983.23 169.098 1975.51 169.098C1964.66 169.098 1956.74 170.558 1951.73 173.478C1946.73 176.398 1944.22 180.152 1944.22 184.74C1944.22 188.912 1946 192.04 1949.54 194.126C1953.3 196.212 1958.2 197.88 1964.25 199.132C1970.29 200.383 1976.86 201.53 1983.96 202.573C1991.25 203.407 1998.55 204.763 2005.85 206.64C2013.15 208.517 2019.72 211.229 2025.56 214.775C2031.61 218.112 2036.51 222.805 2040.27 228.853C2044.02 234.693 2045.9 242.41 2045.9 252.004C2045.9 262.433 2042.77 271.714 2036.51 279.849C2030.26 287.774 2021.18 294.031 2009.3 298.62C1997.62 303.209 1983.33 305.503 1966.44 305.503ZM2129.51 305.503C2115.12 305.503 2101.25 303.834 2087.9 300.497C2074.76 296.951 2064.33 292.571 2056.62 287.357L2072.88 252.317C2080.6 257.114 2089.67 261.077 2100.1 264.206C2110.74 267.126 2121.17 268.586 2131.39 268.586C2142.65 268.586 2150.58 267.23 2155.17 264.519C2159.96 261.807 2162.36 258.053 2162.36 253.256C2162.36 249.293 2160.48 246.373 2156.73 244.496C2153.18 242.41 2148.39 240.846 2142.34 239.803C2136.29 238.76 2129.62 237.717 2122.32 236.675C2115.22 235.632 2108.03 234.276 2100.73 232.607C2093.43 230.73 2086.75 228.019 2080.71 224.473C2074.66 220.927 2069.76 216.13 2066 210.082C2062.46 204.033 2060.68 196.212 2060.68 186.618C2060.68 175.98 2063.71 166.595 2069.76 158.46C2076.01 150.326 2084.98 143.965 2096.66 139.376C2108.34 134.579 2122.32 132.181 2138.58 132.181C2150.06 132.181 2161.74 133.432 2173.62 135.935C2185.51 138.438 2195.42 142.088 2203.35 146.885L2187.08 181.612C2178.94 176.815 2170.7 173.582 2162.36 171.913C2154.23 170.036 2146.3 169.098 2138.58 169.098C2127.74 169.098 2119.81 170.558 2114.81 173.478C2109.8 176.398 2107.3 180.152 2107.3 184.74C2107.3 188.912 2109.07 192.04 2112.62 194.126C2116.37 196.212 2121.27 197.88 2127.32 199.132C2133.37 200.383 2139.94 201.53 2147.03 202.573C2154.33 203.407 2161.63 204.763 2168.93 206.64C2176.23 208.517 2182.8 211.229 2188.64 214.775C2194.69 218.112 2199.59 222.805 2203.35 228.853C2207.1 234.693 2208.98 242.41 2208.98 252.004C2208.98 262.433 2205.85 271.714 2199.59 279.849C2193.33 287.774 2184.26 294.031 2172.37 298.62C2160.69 303.209 2146.41 305.503 2129.51 305.503Z" fill="#EB0028"/>
<path d="M147.973 241L160.973 202L229.473 183C229.473 246.5 190.966 318.305 138.969 333C115.969 339.5 37.8726 339.1 5.4726 259.5C-5.86074 223.5 -7.02362 145 77.4763 89C96.643 76.8333 134.469 52.5 204.976 34.5L190.469 14L280.469 34.5L220.969 102.5L217.969 77.5C190.469 80.5 78.9293 125.6 56.4688 202C57.6354 182 71.2688 132.6 110.469 103C81.0839 117.5 24.6451 165.9 39.9688 235.5C49.8047 267.5 85.7718 323.6 158.969 286C169.302 279.005 189.869 257.811 191.469 229L147.973 241Z" fill="#EB0028"/>
<g filter="url(#filter0_di_1111_36)">
<path d="M99.4632 334C1.91597 291.131 30.5595 208.058 45.3998 172.5L39.1885 189.448L37.3984 206.397V214.372L37.8986 222.348L38.9617 231L39.9617 236L40.9617 238.5L43.9617 246.5L46.9029 252.755L50.9047 260.233L54.9066 266.214L59.4087 271.698L64.4111 277.181L69.4134 282.166L74.916 286.153L80.9188 290.141L87.9221 293.631L91.924 295.126L96.4261 296.622L104.43 298.117L108.432 298.616H112.434H116.936L120.437 298.117L124.439 297.619L127.941 297.12L130.942 296.622L135.945 295.625L142.948 293.132L148.951 291.138L157.955 286.652L162.457 283.661L167.96 278.676L172.962 273.193L181.466 261.229C153.953 309.084 119.937 313.57 78.9179 306.093L99.4632 334Z" fill="#D10023"/>
</g>
<path d="M176.969 256.5L178.469 242.5L148.969 250.5C144.969 242.9 136.469 242.833 132.469 242.5L115.969 185.5C123.569 179.5 123.802 171.333 122.969 168L271.969 119.5C276.769 127.951 285.969 128.688 289.969 128L307.969 183.5C300.769 189.5 298.302 199 297.969 203L238.969 221V235.5L312.969 212.5C307.469 197.5 315.469 191.5 323.469 187.5C316.269 185.5 317.969 174.333 319.969 171C310.769 170.2 312.802 164 314.969 161C308.969 158.6 311.135 153 312.969 150.5C304.169 148.9 306.635 143.167 308.969 140.5C299.369 139.3 302.302 132.333 304.969 129C295.369 127 298.635 118.833 301.469 115C289.069 121 278.635 111.5 274.969 106L109.469 160C111.869 172.4 102.469 180.167 97.4688 182.5C105.469 186.1 103.469 192 101.469 194.5C108.269 197.7 106.969 203.5 105.469 206C112.269 209.6 109.969 215.833 107.969 218.5C115.169 219.7 113.635 226 111.969 229C118.769 231 117.469 237.167 115.969 240C122.369 242.8 121.302 251.167 119.969 255C135.045 251.033 140.874 259.362 144.383 264.377L144.469 264.5L176.969 256.5Z" fill="#EB0028" stroke="#DF2929" stroke-width="0.5"/>
<path d="M248.469 141V147H252.969L252.469 140.5H250.969L250.469 134.5H246.469V140.5L248.469 141Z" fill="#DB0028"/>
<path d="M255.469 161V167H259.969L259.469 160.5H257.969L257.469 154.5H253.469V160.5L255.469 161Z" fill="#DB0028"/>
<path d="M261.469 179V185H265.969L265.469 178.5H263.969L263.469 172.5H259.469V178.5L261.469 179Z" fill="#DB0028"/>
<path d="M266.469 198V204H270.969L270.469 197.5H268.969L268.469 191.5H264.469V197.5L266.469 198Z" fill="#DB0028"/>
<path d="M229.469 183L147.969 241L191.469 229L229.469 183Z" fill="#BD0020"/>
<g filter="url(#filter1_i_1111_36)">
<path d="M217.469 77.5C117.969 103.5 69.4688 162.5 56.4688 202.5C65.4688 149 85.4688 123.5 109.469 103.5C141.869 76.5 233.635 47 280.469 34.5L220.969 102.5L217.469 77.5Z" fill="#D10024"/>
</g>
<defs>
<filter id="filter0_di_1111_36" x="13.7188" y="163.5" width="183.75" height="193.5" filterUnits="userSpaceOnUse" color-interpolation-filters="sRGB">
<feFlood flood-opacity="0" result="BackgroundImageFix"/>
<feColorMatrix in="SourceAlpha" type="matrix" values="0 0 0 0 0 0 0 0 0 0 0 0 0 0 0 0 0 0 127 0" result="hardAlpha"/>
<feOffset dy="7"/>
<feGaussianBlur stdDeviation="8"/>
<feComposite in2="hardAlpha" operator="out"/>
<feColorMatrix type="matrix" values="0 0 0 0 0 0 0 0 0 0 0 0 0 0 0 0 0 0 0.25 0"/>
<feBlend mode="normal" in2="BackgroundImageFix" result="effect1_dropShadow_1111_36"/>
<feBlend mode="normal" in="SourceGraphic" in2="effect1_dropShadow_1111_36" result="shape"/>
<feColorMatrix in="SourceAlpha" type="matrix" values="0 0 0 0 0 0 0 0 0 0 0 0 0 0 0 0 0 0 127 0" result="hardAlpha"/>
<feOffset dy="-1"/>
<feGaussianBlur stdDeviation="18"/>
<feComposite in2="hardAlpha" operator="arithmetic" k2="-1" k3="1"/>
<feColorMatrix type="matrix" values="0 0 0 0 0 0 0 0 0 0 0 0 0 0 0 0 0 0 0.25 0"/>
<feBlend mode="normal" in2="shape" result="effect2_innerShadow_1111_36"/>
</filter>
<filter id="filter1_i_1111_36" x="56.4688" y="34.5" width="224" height="171" filterUnits="userSpaceOnUse" color-interpolation-filters="sRGB">
<feFlood flood-opacity="0" result="BackgroundImageFix"/>
<feBlend mode="normal" in="SourceGraphic" in2="BackgroundImageFix" result="shape"/>
<feColorMatrix in="SourceAlpha" type="matrix" values="0 0 0 0 0 0 0 0 0 0 0 0 0 0 0 0 0 0 127 0" result="hardAlpha"/>
<feOffset dy="3"/>
<feGaussianBlur stdDeviation="22.5"/>
<feComposite in2="hardAlpha" operator="arithmetic" k2="-1" k3="1"/>
<feColorMatrix type="matrix" values="0 0 0 0 0 0 0 0 0 0 0 0 0 0 0 0 0 0 0.25 0"/>
<feBlend mode="normal" in2="shape" result="effect1_innerShadow_1111_36"/>
</filter>
</defs>
</svg>
